<?xml version="1.0" encoding="UTF-8"?>
<svg width="124px" height="114px" viewBox="0 0 124 114" version="1.1" xmlns="http://www.w3.org/2000/svg" xmlns:xlink="http://www.w3.org/1999/xlink">
    <title>brand</title>
    <g id="Start" stroke="none" stroke-width="1" fill="none" fill-rule="evenodd">
        <g transform="translate(-126.000000, -272.000000)" fill-rule="nonzero" id="content">
            <g transform="translate(83.000000, 272.000000)">
                <g id="brand" transform="translate(43.000000, 0.000000)">
                    <path d="M1.05579764,85.6738428 C1.3203782,85.6738428 1.6203035,85.7599906 1.93638639,85.9569719 C19.4729276,96.9299865 41.1675242,103.540698 63.571035,103.540698 C78.6899966,103.540698 95.3010108,100.164812 110.588112,93.1908692 C112.892084,92.1434931 114.822411,94.8226397 112.568427,96.6221718 C98.9314197,107.439516 79.1610914,113.195298 62.1370487,113.195298 C38.2803645,113.195298 16.7973314,103.708963 0.534210378,87.9212427 C0.215097941,87.6119167 0.0474629259,87.2728671 1.42108547e-14,86.9544728 L1.42108547e-14,86.5816694 C0.0797781094,86.0662939 0.488262227,85.6738428 1.05579764,85.6738428 Z M115.158691,84.235527 C119.316746,84.235527 122.675001,85.1237059 123.389974,86.073347 C124.89263,88.0547467 123.003202,101.792048 115.684318,108.343816 C114.564395,109.358446 113.499003,108.811835 113.99282,107.48788 C115.63837,103.093837 119.321291,93.2276457 117.575766,90.8356585 C115.832766,88.4381296 106.045809,89.6930665 101.657003,90.2588208 C100.97687,90.3449686 100.590097,90.0673812 100.533546,89.653771 L100.533546,89.4305927 C100.579494,89.0718954 100.834481,88.6532473 101.319714,88.2869931 C105.352043,85.2491492 110.713334,84.235527 115.158691,84.235527 Z" id="icon" fill="#FFFFFF"></path>
                    <path d="M108.113652,76.3384463 C104.37339,76.3384463 101.449779,75.2666375 99.3438731,73.12302 C97.2379671,70.9794024 96.1847506,67.9890958 96.1847506,64.1521 C96.1847506,60.3444894 97.2379671,57.3691243 99.3438731,55.2260048 C101.449779,53.0823872 104.37339,52.0105784 108.113652,52.0105784 C111.854441,52.0105784 114.777525,53.0823872 116.883431,55.2260048 C118.989337,57.3691243 120.042553,60.3444894 120.042553,64.1521 C120.042553,67.9890958 118.989337,70.9794024 116.883431,73.12302 C114.777525,75.2666375 111.854441,76.3384463 108.113652,76.3384463 Z M108.113652,71.3016423 C111.413976,71.3016423 113.064665,68.9184616 113.064665,64.1521 C113.064665,59.4151236 111.413976,57.0468844 108.113652,57.0468844 C104.813328,57.0468844 103.163166,59.4151236 103.163166,64.1521 C103.163166,68.9184616 104.813328,71.3016423 108.113652,71.3016423 Z M82.1109548,66.2040759 C80.356999,66.2040759 78.8322324,66.0442011 77.5413968,65.7209651 C77.7242213,67.6902643 78.3501448,69.1027409 79.4117912,69.9539125 C80.4734376,70.804586 82.0798693,71.231915 84.2342476,71.231915 C85.0935752,71.231915 85.9339355,71.1801175 86.7505866,71.0760246 C87.5635496,70.975418 88.6952699,70.7453178 90.1420595,70.395685 C90.2311008,70.3662999 90.3243571,70.3438875 90.4181403,70.328946 C90.5113965,70.3140044 90.5851586,70.3065336 90.6473294,70.3065336 C91.1726205,70.3065336 91.4328951,70.6447112 91.4328951,71.3210664 L91.4328951,73.3506299 C91.4328951,73.8187992 91.3628212,74.149506 91.2268883,74.3427503 C91.0867404,74.5320102 90.8185627,74.7033403 90.4181403,74.8482735 C88.1699789,75.6695619 85.7858846,76.0819493 83.2621693,76.0819493 C79.4470916,76.0819493 76.5182121,75.0858445 74.4728963,73.0826777 C72.4270536,71.0834954 71.4043957,68.2181999 71.4043957,64.4833049 C71.4043957,60.6627449 72.450236,57.6639713 74.5424433,55.4894745 C76.6351776,53.3119894 79.5403479,52.2232468 83.2621693,52.2232468 C86.1241362,52.2232468 88.3643945,52.8846604 89.9782024,54.2074876 C91.5925372,55.5308129 92.4012852,57.2959106 92.4012852,59.4997925 C92.4012852,61.7071608 91.5303663,63.3756363 89.7959048,64.5057172 C88.0572283,65.6387865 85.4945246,66.2040759 82.1109548,66.2040759 Z M82.7563726,56.6788237 C79.8006225,56.6788237 78.0935583,58.4145363 77.6346531,61.8819771 C78.8633178,62.1195481 80.2326573,62.2350963 81.7416177,62.2350963 C83.3085341,62.2350963 84.4481575,62.0079844 85.1557461,61.5512704 C85.8638616,61.0975446 86.2179194,60.3987771 86.2179194,59.4589522 C86.2179194,57.604205 85.0624898,56.6788237 82.7563726,56.6788237 L82.7563726,56.6788237 Z M52.9781131,76.1581513 C50.9354317,76.1581513 49.1593473,75.6561145 47.6503869,74.6520409 C46.1414264,73.6474692 44.9865237,72.2539185 44.1851519,70.4698948 C43.3832533,68.6863691 42.9828308,66.6254283 42.9828308,64.2870722 C42.9828308,60.5696091 43.9095981,57.594244 45.7641863,55.360977 C47.6187746,53.1272119 50.0708353,52.0105784 53.1198416,52.0105784 C55.6029877,52.0105784 57.7563122,52.6849414 59.5792881,54.0341654 L59.5792881,43.5118122 C59.5792881,43.091954 59.6735982,42.7995972 59.8622182,42.6347419 C60.0508383,42.4698865 60.3495745,42.3877079 60.7579001,42.3877079 L65.2842545,42.3877079 C65.7241923,42.3877079 66.0308316,42.4698865 66.2036456,42.6347419 C66.3764595,42.7995972 66.4628664,43.091954 66.4628664,43.5118122 L66.4628664,74.539481 C66.4628664,74.9294561 66.3764595,75.213844 66.2036456,75.394139 C66.0308316,75.5739359 65.7241923,75.6635853 65.2842545,75.6635853 L61.5123803,75.6635853 C61.1351402,75.6635853 60.844307,75.5888774 60.6398808,75.4389637 C60.4359815,75.2890499 60.2863499,75.0340471 60.1920399,74.6744532 L59.9091098,73.6399984 C57.9602115,75.318933 55.6504062,76.1581513 52.9781131,76.1581513 L52.9781131,76.1581513 Z M55.2415538,71.2119929 C56.7505142,71.2119929 58.19625,70.7921347 59.5792881,69.9529164 L59.5792881,58.0813392 C58.2278623,57.3317704 56.6714834,56.9572349 54.9112052,56.9572349 C53.245237,56.9572349 52.0039274,57.5494193 51.1867494,58.7332898 C50.3695715,59.9176585 49.9607191,61.7086549 49.9607191,64.1067773 C49.9607191,66.5053976 50.3927539,68.2889233 51.2573503,69.4583504 C52.1219466,70.6272794 53.4496632,71.2119929 55.2415538,71.2119929 Z M32.7520369,75.6635853 C32.3431845,75.6635853 32.0444482,75.5739359 31.8558282,75.394139 C31.6672081,75.213844 31.5728981,74.9294561 31.5728981,74.539481 L31.5728981,53.8095437 C31.5728981,53.3896856 31.6672081,53.0973288 31.8558282,52.9324734 C32.0444482,52.7676181 32.3431845,52.6849414 32.7520369,52.6849414 L37.2783913,52.6849414 C37.7183292,52.6849414 38.0249685,52.7676181 38.1977824,52.9324734 C38.3705963,53.0973288 38.4570032,53.3896856 38.4570032,53.8095437 L38.4570032,74.539481 C38.4570032,74.9294561 38.3705963,75.213844 38.1977824,75.394139 C38.0249685,75.5739359 37.7183292,75.6635853 37.2783913,75.6635853 L32.7520369,75.6635853 Z M35.0149507,49.1328316 C33.8205326,49.1328316 32.8616262,48.8180625 32.1387583,48.1885243 C31.4158903,47.558986 31.0544564,46.7043281 31.0544564,45.6250485 C31.0544564,44.546267 31.4158903,43.6916091 32.1387583,43.0620708 C32.8616262,42.4325326 33.8205326,42.1177635 35.0149507,42.1177635 C36.2093687,42.1177635 37.1682751,42.4325326 37.8911431,43.0620708 C38.614011,43.6916091 38.9754449,44.546267 38.9754449,45.6250485 C38.9754449,46.7043281 38.614011,47.558986 37.8911431,48.1885243 C37.1682751,48.8180625 36.2093687,49.1328316 35.0149507,49.1328316 Z M14.047566,75.6635853 C13.7330236,75.6635853 13.4738028,75.6262314 13.2693766,75.5515235 C13.0658951,75.476982 12.8869899,75.3527206 12.7509348,75.1914316 C12.6092064,75.0265763 12.4759078,74.7944839 12.3499855,74.4946563 L4.28726847,54.4839067 C4.20471864,54.2754328 4.12620168,54.0655518 4.05175684,53.8543685 C3.99281589,53.6952736 3.96098259,53.5283384 3.95744681,53.3598024 C3.95744681,52.9100611 4.27198919,52.6849414 4.90054708,52.6849414 L9.61552159,52.6849414 C10.1181572,52.6849414 10.4874942,52.7750889 10.7235327,52.9548858 C10.9590443,53.1346827 11.1397613,53.4345103 11.2656836,53.8543685 L16.1218597,69.7731195 L21.0728727,53.8543685 C21.1982682,53.4345103 21.3789852,53.1346827 21.6150237,52.9548858 C21.8505353,52.7750889 22.2198724,52.6849414 22.7230348,52.6849414 L27.2962808,52.6849414 C27.9253656,52.6849414 28.2393811,52.9100611 28.2393811,53.3598024 C28.2393811,53.5097162 28.2082957,53.6745715 28.1450711,53.8543685 C28.0823733,54.0341654 28.0038695,54.2438454 27.9095594,54.4839067 L19.8468424,74.4946563 C19.7209201,74.7944839 19.5876215,75.0265763 19.4458931,75.1914316 C19.3153223,75.3485779 19.1452526,75.4723634 18.9511606,75.5515235 C18.7625405,75.6262314 18.4954166,75.6635853 18.1492619,75.6635853 L14.047566,75.6635853 Z" id="video" fill="#00AAE1"></path>
                    <path d="M110.033994,23.7566285 C108.328358,23.7566285 106.845479,23.5959784 105.589852,23.2717394 C105.767657,25.2480299 106.376492,26.6644939 107.409363,27.5181927 C108.441734,28.3723812 110.004026,28.8009448 112.099236,28.8009448 C112.935322,28.8009448 113.752429,28.7485376 114.546561,28.644213 C115.337197,28.5438066 116.437494,28.3126272 117.844955,27.9619397 C117.932301,27.9323035 118.022014,27.9098588 118.113162,27.8948389 C118.204063,27.8801453 118.275984,27.8723087 118.336418,27.8723087 C118.84686,27.8723087 119.100583,28.2117311 119.100583,28.8905758 L119.100583,30.9261306 C119.100583,31.3958363 119.032158,31.7274221 118.899802,31.9213778 C118.763951,32.1114151 118.502736,32.2833304 118.113162,32.4283073 C115.927052,33.2526188 113.608586,33.6664888 111.15377,33.6664888 C107.443326,33.6664888 104.594939,32.6673234 102.605614,30.6577273 C100.615789,28.6515598 99.6213758,25.7774897 99.6213758,22.0301294 C99.6213758,18.1975461 100.638764,15.1887846 102.673539,13.0077631 C104.708315,10.8228233 107.534226,9.73059828 111.15377,9.73059828 C113.937726,9.73059828 116.116345,10.3942597 117.686129,11.7215824 C119.255414,13.0489052 120.042553,14.819975 120.042553,17.0308735 C120.042553,19.2452005 119.19498,20.9192924 117.508323,22.0526596 C115.817172,23.189945 113.324896,23.7566285 110.033994,23.7566285 L110.033994,23.7566285 Z M110.661807,14.2008842 C107.787449,14.2008842 106.126765,15.942077 105.680752,19.4205442 C106.875946,19.6590705 108.20749,19.7746602 109.674886,19.7746602 C111.19922,19.7746602 112.307508,19.5473991 112.995756,19.0884687 C113.684004,18.6339463 114.028128,17.9330611 114.028128,16.9897314 C114.028128,15.1290306 112.904855,14.2008842 110.661807,14.2008842 L110.661807,14.2008842 Z M66.8551927,12.5640161 C68.4399604,11.5310553 69.8698973,10.8002931 71.1405084,10.375158 C72.4048463,9.94717298 73.7331689,9.72916043 75.0707123,9.73009717 C77.7637685,9.73009717 79.6621933,10.6773565 80.7704818,12.5640161 C82.2948156,11.5609323 83.7322443,10.8375169 85.0787724,10.3976882 C86.4230431,9.95375455 87.8322644,9.72825572 89.250712,9.73009717 C91.3459217,9.73009717 92.9686479,10.3080571 94.1223867,11.4566077 C95.27213,12.6085867 95.8509972,14.2155778 95.8509972,16.2810096 L95.8509972,31.8988476 C95.8509972,32.2828406 95.7675884,32.562509 95.6052658,32.7378527 C95.4384481,32.9166249 95.1472664,33.0023377 94.727725,33.0023377 L90.4194345,33.0023377 C90.0298603,33.0023377 89.7461704,32.9166249 89.5683648,32.7378527 C89.387063,32.562509 89.2961623,32.2828406 89.2961623,31.8988476 L89.2961623,17.6974736 C89.2961623,15.6917958 88.3846587,14.6887121 86.5576558,14.6887121 C84.9424214,14.6887121 83.3122034,15.0692766 81.6670018,15.8372626 L81.6670018,31.8988476 C81.6670018,32.2828406 81.583593,32.562509 81.4212704,32.7378527 C81.2549522,32.9166249 80.9632711,33.0023377 80.5437297,33.0023377 L76.2354391,33.0023377 C75.845865,33.0023377 75.5621751,32.9166249 75.3843694,32.7378527 C75.2030676,32.562509 75.1161626,32.2828406 75.1161626,31.8988476 L75.1161626,17.6974736 C75.1161626,15.6917958 74.2006634,14.6887121 72.3776561,14.6887121 C70.7019878,14.6887121 69.0567862,15.0839702 67.4375562,15.8818332 L67.4375562,31.8988476 C67.4375562,32.2828406 67.3546468,32.562509 67.1918248,32.7378527 C67.0255066,32.9166249 66.7343249,33.0023377 66.3182797,33.0023377 L62.0059934,33.0023377 C61.6204149,33.0023377 61.3327294,32.9166249 61.1554232,32.7378527 C60.9776176,32.562509 60.8867169,32.2828406 60.8867169,31.8988476 L60.8867169,11.5011783 C60.8867169,11.0873083 60.9776176,10.8002931 61.1554232,10.6401327 C61.3327294,10.4760541 61.6204149,10.3976882 62.0059934,10.3976882 L65.2399584,10.3976882 C65.9287055,10.3976882 66.3447507,10.7219272 66.4960853,11.3708949 L66.8551927,12.5640161 Z M48.7759553,11.5021578 C48.7759553,11.0882878 48.866856,10.8012727 49.0446616,10.6406225 C49.2264629,10.4765439 49.5101528,10.3947494 49.8997269,10.3947494 L54.207518,10.3947494 C54.6275589,10.3947494 54.9187406,10.4765439 55.0815626,10.6406225 C55.2478808,10.8012727 55.3312896,11.0882878 55.3312896,11.5021578 L55.3312896,31.8959088 C55.3312896,32.2799019 55.2478808,32.5629987 55.0815626,32.7383425 C54.9187406,32.9136862 54.6275589,33.0033172 54.207518,33.0033172 L49.8997269,33.0033172 C49.5101528,33.0033172 49.2264629,32.9136862 49.0446616,32.7383425 C48.866856,32.5629987 48.7759553,32.2799019 48.7759553,31.8959088 L48.7759553,11.5021578 Z M52.0518744,6.90109879 C50.9131192,6.90109879 50.0016155,6.59155341 49.3133679,5.97295243 C48.6251202,5.35043316 48.2844925,4.51142803 48.2844925,3.44859025 C48.2844925,2.38624225 48.6251202,1.54723712 49.3133679,0.928636147 C50.0016155,0.309545382 50.9131192,0 52.0518744,0 C53.1901301,0 54.1016338,0.309545382 54.7903809,0.928636147 C55.4786286,1.54723712 55.8227524,2.38624225 55.8227524,3.44859025 C55.8227524,4.51142803 55.4786286,5.35043316 54.7903809,5.97295243 C54.1016338,6.59155341 53.1901301,6.90109879 52.0518744,6.90109879 L52.0518744,6.90109879 Z M37.0342902,13.7581168 C38.2294838,12.460671 39.3602477,11.5398714 40.4230859,10.9917998 C41.4676573,10.451657 42.6314928,10.1712912 43.812381,10.175282 L44.4401948,10.175282 C44.8597362,10.175282 45.1589091,10.2576091 45.3367148,10.4177694 C45.5180166,10.5818481 45.6049216,10.8688633 45.6049216,11.278815 L45.6049216,14.9962983 C45.6049216,15.3802913 45.5255084,15.6599597 45.3591902,15.8387319 C45.1963682,16.0140757 44.9051865,16.1032169 44.4856451,16.1032169 C44.2738766,16.1032169 44.0051703,16.0885233 43.6760301,16.0586463 C43.2583695,16.0255233 42.8394122,16.0106517 42.4204026,16.0140757 C41.7316555,16.0140757 40.8960689,16.1110535 39.9051521,16.3010908 C38.9177314,16.4950465 38.0816454,16.7370013 37.3933977,17.031853 L37.3933977,31.8963986 C37.3933977,32.2803916 37.3104883,32.56006 37.1476663,32.7393221 C36.9813481,32.914176 36.6901664,33.003807 36.2701255,33.003807 L31.961835,33.003807 C31.5722608,33.003807 31.2885709,32.914176 31.1107653,32.7393221 C30.9294635,32.56006 30.8385628,32.2803916 30.8385628,31.8963986 L30.8385628,11.5026476 C30.8385628,11.0887776 30.9294635,10.8017624 31.1107653,10.6376838 C31.2885709,10.4775234 31.5722608,10.3952392 31.961835,10.3952392 L35.1923037,10.3952392 C35.8805514,10.3952392 36.3005922,10.719968 36.4519268,11.368446 L37.0342902,13.7581168 Z M3.95744681,11.5006885 C3.95744681,11.0907368 4.04834744,10.8037216 4.23014872,10.6396429 C4.40795435,10.4755643 4.69164425,10.3971984 5.0812184,10.3971984 L8.31468388,10.3971984 C9.003431,10.3971984 9.41947622,10.7214374 9.57081079,11.3704051 L9.88446793,12.5184659 C10.7809879,11.6647671 11.866801,10.9864121 13.1374121,10.4829111 C14.4085226,9.98332837 15.7056048,9.733537 17.0221657,9.733537 C19.9229947,9.733537 22.218985,10.7811914 23.9096369,12.8730717 C25.6002888,14.9683804 26.4478623,17.7978799 26.4478623,21.3698965 C26.4478623,23.815403 26.0278215,25.9552824 25.1917354,27.7821879 C24.3521532,29.6130117 23.2138974,31.0221288 21.7799649,32.0066007 C20.3430356,32.9984194 18.6973345,33.4901655 16.8403644,33.4901655 C15.6147042,33.4901655 14.4459817,33.3001282 13.3416888,32.9161352 C12.2334003,32.5321422 11.29143,32.0026824 10.5122817,31.3243274 L10.5122817,41.0103551 C10.5122817,41.4242251 10.4293723,41.7112403 10.2665503,41.8753189 C10.1002321,42.0354793 9.80905037,42.1177635 9.38900952,42.1177635 L5.0812184,42.1177635 C4.69164425,42.1177635 4.40795435,42.0354793 4.23014872,41.8753189 C4.04834744,41.7112403 3.95744681,41.4242251 3.95744681,41.0103551 L3.95744681,11.5006885 Z M14.9114729,14.599081 C13.3566724,14.599081 11.8892765,14.9977676 10.5122817,15.7922022 L10.5122817,27.4280719 C11.8288425,28.2259349 13.2962385,28.6251113 14.9114729,28.6251113 C16.5871412,28.6251113 17.8202932,28.0657745 18.6144251,26.9436725 C19.4085571,25.8210807 19.805623,24.0539292 19.805623,21.6343815 C19.805623,19.1849567 19.4160489,17.4026218 18.6369006,16.2805198 C17.8577523,15.1584178 16.6171084,14.599081 14.9114729,14.599081 L14.9114729,14.599081 Z" id="prime" fill="#FFFFFF"></path>
                </g>
            </g>
        </g>
    </g>
</svg>